# xmcd
#
# Track frame offsets:
#	150
#	14300
#	31975
#	44987
#	59350
#	70612
#	82737
#	95512
#	107325
#	119237
#	135225
#	146912
#	159975
#	172012
#	184800
#	198025
#	209012
#
# Disc length: 2951 seconds
#
# Revision: 1
# Processed by: cddbd v1.5.1PL0 Copyright (c) Steve Scherf et al.
# Submitted via: audiograbber 1.83.01
#
DISCID=ef0b8511
DTITLE=Various Artist - Das Wunschkonzert Der Volksmusik Cd 02
DYEAR=1996
DGENRE=Volksmusik Deutsch
TTITLE0=Edward Simoni and Alina Pogostkin - Lied Für Den Frieden
TTITLE1=Lolita - La Paloma
TTITLE2=Stefan Moll - So Ein Kleines Bisserl Glück Auf Erden
TTITLE3=Michael David - Harmonie
TTITLE4=Maria Und Margot Hellwig - Auf Gute Nachbarschaft
TTITLE5=Alfons Bauer U. Sein Orchester - Der Dritte Mann
TTITLE6=Edith Prock - El Paradieso-Mein Tenerife
TTITLE7=Ricky King - Schiwago Melodie
TTITLE8=Die Könige Mit Heidi - An Schöner König Hat's Nie Geb'n!
TTITLE9=Maria Und Margot Hellwig - Kufsteiner Lied
TTITLE10=Alfons Bauer Und Wolfgang Lindner Mit Den Stadlmusikanten Und Chor - S
TTITLE10=chön Ist Die Musik Aus Dem Böhmerland
TTITLE11=Edith Prock - Ein Bisserl Glück
TTITLE12=Walter Scholz - Tango Der Liebe
TTITLE13=Marianne Und Michael - Der Streitjodler
TTITLE14=Alfons Bauer Und Seine Almdudler - Tirtiomba
TTITLE15=Margot Hellwig - Hörst Du Das Rauschen Der Wälder
TTITLE16=Alfons Bauer Und Die Stadlmusikanten - Stadlmarsch
EXTD=
EXTT0=
EXTT1=
EXTT2=
EXTT3=
EXTT4=
EXTT5=
EXTT6=
EXTT7=
EXTT8=
EXTT9=
EXTT10=
EXTT11=
EXTT12=
EXTT13=
EXTT14=
EXTT15=
EXTT16=
PLAYORDER=
